<svg xmlns="http://www.w3.org/2000/svg" width="21.824" height="21.81" viewBox="0 0 21.824 21.81">
  <g id="Phone" transform="translate(0 -0.188)">
    <g id="Groupe_1" data-name="Groupe 1" transform="translate(0 0.188)">
      <path id="Tracé_2" data-name="Tracé 2" d="M21.814,17.4a1.055,1.055,0,0,1-.323.924l-3.073,3.05a1.729,1.729,0,0,1-.543.393,2.243,2.243,0,0,1-.658.208q-.023,0-.139.012t-.3.012a10.651,10.651,0,0,1-1.421-.15,10.791,10.791,0,0,1-2.4-.739A20.168,20.168,0,0,1,9.73,19.341,24.029,24.029,0,0,1,5.9,16.106a25.317,25.317,0,0,1-2.68-3.05,21.729,21.729,0,0,1-1.71-2.692,14.5,14.5,0,0,1-.97-2.241A11.89,11.89,0,0,1,.1,6.391,5.722,5.722,0,0,1,0,5.248q.023-.416.023-.462a2.246,2.246,0,0,1,.208-.658,1.731,1.731,0,0,1,.393-.543L3.7.511A1.018,1.018,0,0,1,4.44.188a.862.862,0,0,1,.531.173,1.606,1.606,0,0,1,.393.427l2.472,4.69a1.124,1.124,0,0,1,.116.809,1.44,1.44,0,0,1-.393.739L6.427,8.159a.385.385,0,0,0-.081.15.57.57,0,0,0-.035.173,4.172,4.172,0,0,0,.416,1.109,10.18,10.18,0,0,0,.855,1.352,15.007,15.007,0,0,0,1.64,1.837,15.3,15.3,0,0,0,1.848,1.652,10.674,10.674,0,0,0,1.352.866,3.592,3.592,0,0,0,.832.335l.289.058a.551.551,0,0,0,.15-.035.386.386,0,0,0,.15-.081l1.317-1.34a1.415,1.415,0,0,1,.97-.37,1.207,1.207,0,0,1,.624.139h.023l4.459,2.634A1.162,1.162,0,0,1,21.814,17.4Z" transform="translate(0 -0.188)" fill="#9b9b9b"/>
    </g>
  </g>
</svg>
