<svg xmlns="http://www.w3.org/2000/svg" width="318" height="191.496" viewBox="0 0 318 191.496">
    <defs>
        <style>
            .cls-1{fill:#f2f2f2}.cls-2{fill:#3f3d56}.cls-3{opacity:.1}.cls-4,.cls-6{fill:none;stroke:#3f3d56;stroke-miterlimit:10}.cls-5{fill:#357997}.cls-6{opacity:0}.cls-7{fill:#46455b}.cls-8{fill:#a8a8a8}.cls-9{opacity:.2}.cls-10{fill:#a0616a}.cls-11{fill:#605d82}.cls-12{fill:#535070}.cls-13{fill:#fff}.cls-14{fill:#57b894}
        </style>
    </defs>
    <g id="undraw_message_sent_1030" transform="translate(0 -.017)">
        <path id="Tracé_18" d="M698.472 254.19l2.727-.471c.262-.046.521-.1.783-.149a22.384 22.384 0 0 1 14.292-41.263l-3.574 8.5 8.467-7.394a.388.388 0 0 1 .058.019 22.385 22.385 0 0 1 13.675 28.556c-.142.4-.31.788-.472 1.178a26.767 26.767 0 0 0 6.554-4.39c3.786-3.628 5.86-8.634 8.178-14.8a1303.232 1303.232 0 0 0 13.259-37.048 22.375 22.375 0 0 1-10.461-27.1c.228-.646.491-1.268.77-1.879.07-.153.14-.3.213-.456.284-.586.584-1.16.912-1.711.054-.09.114-.175.169-.264q.43-.7.906-1.352c.118-.164.236-.328.358-.488.36-.471.732-.928 1.125-1.366.131-.146.271-.283.406-.425q.453-.478.931-.927c.168-.158.334-.316.506-.468.044-.039.085-.082.13-.12l.006.009a22.37 22.37 0 0 1 28.621-.643l-4.651 11.067 8.371-7.306a22.261 22.261 0 0 1 .827 26.364l.023.008c-.091.134-.2.257-.289.389q-.265.371-.542.73c-.238.306-.485.6-.737.894-.19.22-.378.443-.576.655-.29.31-.594.6-.9.9-.179.17-.349.349-.533.513q-.722.645-1.493 1.224c-.181.135-.371.254-.555.384-.361.254-.724.5-1.1.736-.233.144-.472.275-.709.41a19.52 19.52 0 0 1-1.802.924 23.97 23.97 0 0 1-1.1.465c-.249.1-.5.2-.75.286-.417.147-.84.274-1.266.4-.215.062-.426.132-.643.188-.638.163-1.284.3-1.937.408-.123.02-.248.028-.371.046-.541.079-1.085.142-1.634.181-.236.017-.473.019-.71.028-.443.017-.887.026-1.333.017-.26-.006-.52-.019-.781-.034q-.652-.037-1.3-.113c-.257-.03-.514-.059-.771-.1a22.498 22.498 0 0 1-1.4-.265l-.092-.017q-2.688 7.864-5.475 15.694a22.37 22.37 0 0 1 32.437 2.674l-7.739 8.559 10.478-4.183a22.308 22.308 0 0 1 .9 17.041 21.955 21.955 0 0 1-2.843 5.5 22.376 22.376 0 0 1-40.432-9.817c-.2.526-.387 1.059-.584 1.584-2.045 5.441-4.591 12.213-9.7 17.109-3.464 3.318-7.727 5.424-11.816 7.2q-3.994 1.738-8.1 3.214a22.434 22.434 0 0 1-10.018 3.193c-4.314 1.2-8.682 2.2-13.09 2.971l-2.749.474c-2.471.423-5 .859-7.518 1.361.362.107.725.21 1.085.337a22.392 22.392 0 0 1 14.948 21.785L690.8 289.1l15.6 2.477a22.4 22.4 0 0 1-37.317 6.623q.237.8.477 1.589c.317 1.051.631 2.1.932 3.13 4.1 14.1 2.338 25.193-4.974 31.231l-3.967-4.8c7.116-5.878 4.908-17.991 2.96-24.689-.3-1.016-.605-2.042-.916-3.074-2.673-8.879-5.7-18.944-1.778-28.192 5.913-13.941 22.959-16.86 36.655-19.205z" class="cls-1" data-name="Tracé 18" transform="translate(-482.13 -144.859)"/>
        <path id="Tracé_19" d="M469.913 449.914H349.16a14.931 14.931 0 0 1-14.931-14.931V379.66a5.915 5.915 0 0 1 1.846-4.293l63.987-60.655a13.772 13.772 0 0 1 18.949 0l61.008 57.831a15.461 15.461 0 0 1 4.825 11.221v51.219a14.931 14.931 0 0 1-14.931 14.931z" class="cls-2" data-name="Tracé 19" transform="translate(-258.623 -258.813)"/>
        <path id="Tracé_20" d="M240.954 387.992h149.36v60.33a9.016 9.016 0 0 1-9.016 9.016H249.97a9.016 9.016 0 0 1-9.016-9.016z" class="cls-3" data-name="Tracé 20" transform="translate(-165.348 -266.236)"/>
        <rect id="Rectangle_300" width="111.078" height="111.078" class="cls-5" data-name="Rectangle 300" rx="26.181" transform="translate(95.218 74.218)"/>
        <path id="Tracé_22" d="M414.532 395.942v61.046H303.454v-61.046l55.539 26.844z" class="cls-3" data-name="Tracé 22" transform="translate(-208.236 -271.692)"/>
        <path id="Tracé_23" d="M409.037 561.5l-71.163-34.4a2.887 2.887 0 0 0-4.144 2.6v59.179a9.016 9.016 0 0 0 9.016 9.016h132.582a9.016 9.016 0 0 0 9.016-9.016v-58.161a3.523 3.523 0 0 0-5.057-3.172z" class="cls-2" data-name="Tracé 23" transform="translate(-258.28 -406.955)"/>
        <path id="Rectangle_301" d="M0 0h31.064v4.393H0z" class="cls-1" data-name="Rectangle 301" transform="translate(104.788 84.416)"/>
        <path id="Rectangle_302" d="M0 0h92.251v2.51H0z" class="cls-1" data-name="Rectangle 302" transform="translate(102.278 100.418)"/>
        <path id="Rectangle_303" d="M0 0h92.251v2.51H0z" class="cls-1" data-name="Rectangle 303" transform="translate(102.278 108.89)"/>
        <path id="Rectangle_304" d="M0 0h92.251v2.51H0z" class="cls-1" data-name="Rectangle 304" transform="translate(102.278 117.363)"/>
        <path id="Ligne_8" d="M0 0h258.555" class="cls-6" data-name="Ligne 8" transform="translate(19.126 190.944)"/>
        <path id="Tracé_24" d="M93.275 630.212c0 18.5 11.606 33.471 25.949 33.471" class="cls-7" data-name="Tracé 24" transform="translate(-93.275 -477.907)"/>
        <path id="Tracé_25" d="M175.975 662.861c0-18.708 12.952-33.847 28.958-33.847" class="cls-5" data-name="Tracé 25" transform="translate(-150.025 -477.084)"/>
        <path id="Tracé_26" d="M123.239 635.557c0 17.574 7.4 31.794 16.547 31.794" class="cls-5" data-name="Tracé 26" transform="translate(-113.837 -481.575)"/>
        <path id="Tracé_27" d="M175.975 642.3c0-23.905 14.97-43.249 33.471-43.249" class="cls-7" data-name="Tracé 27" transform="translate(-150.025 -456.523)"/>
        <path id="Tracé_28" d="M158.577 733.286s3.68-.113 4.789-.9 5.661-1.733 5.936-.466 5.53 6.3 1.376 6.333-9.654-.647-10.761-1.321-1.34-3.646-1.34-3.646z" class="cls-8" data-name="Tracé 28" transform="translate(-138.087 -547.273)"/>
        <path id="Tracé_29" d="M170.752 742.147c-4.155.033-9.654-.647-10.761-1.322-.843-.513-1.179-2.356-1.291-3.206h-.123s.233 2.968 1.34 3.642 6.606 1.355 10.761 1.321c1.2-.01 1.614-.436 1.591-1.068-.169.386-.624.626-1.517.633z" class="cls-9" data-name="Tracé 29" transform="translate(-138.087 -551.611)"/>
        <path id="Tracé_30" d="M808.283 296.134c-.189 1.68-1.47 3.034-1.945 4.656-.715 2.442.521 5.063 2.212 6.965a15.425 15.425 0 0 0 10.742 5.1 4.582 4.582 0 0 0 1.776-.194 3.8 3.8 0 0 0 1.351-.923 8.636 8.636 0 0 0 2.229-4.833 25.724 25.724 0 0 0 .06-5.4 3.051 3.051 0 0 0-.2-1.089 2.792 2.792 0 0 0-.7-.862 16.34 16.34 0 0 0-3.009-2.186 3.453 3.453 0 0 1-1.261-.965 3.117 3.117 0 0 1-.39-1.155l-.333-1.694a3.332 3.332 0 0 0-.488-1.373 3.379 3.379 0 0 0-2.7-.939l-3.61-.142a17.4 17.4 0 0 0-3.7-.145c-1.024.206-.684 1.149-.5 2.008a14.508 14.508 0 0 1 .466 3.171z" class="cls-10" data-name="Tracé 30" transform="translate(-582.451 -245.049)"/>
        <path id="Tracé_31" d="M808.283 296.134c-.189 1.68-1.47 3.034-1.945 4.656-.715 2.442.521 5.063 2.212 6.965a15.425 15.425 0 0 0 10.742 5.1 4.582 4.582 0 0 0 1.776-.194 3.8 3.8 0 0 0 1.351-.923 8.636 8.636 0 0 0 2.229-4.833 25.724 25.724 0 0 0 .06-5.4 3.051 3.051 0 0 0-.2-1.089 2.792 2.792 0 0 0-.7-.862 16.34 16.34 0 0 0-3.009-2.186 3.453 3.453 0 0 1-1.261-.965 3.117 3.117 0 0 1-.39-1.155l-.333-1.694a3.332 3.332 0 0 0-.488-1.373 3.379 3.379 0 0 0-2.7-.939l-3.61-.142a17.4 17.4 0 0 0-3.7-.145c-1.024.206-.684 1.149-.5 2.008a14.508 14.508 0 0 1 .466 3.171z" class="cls-3" data-name="Tracé 31" transform="translate(-582.451 -245.049)"/>
        <path id="Tracé_32" d="M845.1 530.45l-1.534 16.821c-.4 4.412-.808 8.842-1.594 13.2a64.78 64.78 0 0 1-.966 4.474c-1.049 4.11-2.57 8.126-3.061 12.34-.015.121-.028.245-.041.369a10.72 10.72 0 0 1-.524 2.738c-.245.643-.622 1.23-.889 1.865a11.9 11.9 0 0 0-.664 4.053 17.469 17.469 0 0 0-6.016-2.056 4.6 4.6 0 0 1-2.852-1.023c-.77-.842-.685-2.131-.555-3.263l1.214-10.534a27.462 27.462 0 0 1 .767-4.474c.14-.488.307-.969.478-1.449.235-.661.473-1.323.651-2a24.1 24.1 0 0 0 .537-3.335c.416-3.534.917-7.06 1.356-10.591l.023-.186a108.312 108.312 0 0 0 1.015-16.121c-.021-.8-.054-1.6-.106-2.4-.072-1.16-.178-1.775.783-2.5a18.071 18.071 0 0 1 3.673-1.886c.654-.284 7.85-2.839 8.018-2.278a14.022 14.022 0 0 1 .527 3.673 40.826 40.826 0 0 1-.24 4.563z" class="cls-11" data-name="Tracé 32" transform="translate(-596.306 -403.74)"/>
        <path id="Tracé_33" d="M847.538 615.717a64.78 64.78 0 0 1-.966 4.474c-1.049 4.11-2.57 8.127-3.061 12.34-.016.121-.028.245-.041.369-3.208-4.582-5.91-9.511-9.041-14.142.235-.661.473-1.323.651-2a24.079 24.079 0 0 0 .537-3.335c.416-3.534.917-7.06 1.356-10.591l.023-.186a10.963 10.963 0 0 0 .783 2.172c2.1 4.273 7.1 6.432 9.542 10.521q.112.189.217.378z" class="cls-3" data-name="Tracé 33" transform="translate(-601.869 -458.989)"/>
        <path id="Tracé_34" d="M793.216 479.106a79.49 79.49 0 0 0 1.2 10.207l1.129 6.983c.618 3.822 1.262 7.721 3.07 11.144a51.6 51.6 0 0 0 5.065 7.043c4.335 5.648 7.592 12.045 11.7 17.858 1.195 1.69 2.9 3.517 4.942 3.164 1.338-.231 2.31-1.346 3.362-2.2 1.24-1.013 2.735-1.754 3.711-3.023s1.167-3.38-.155-4.283a6.976 6.976 0 0 0-1.513-.619c-2.049-.779-3.376-2.781-4.22-4.8s-1.355-4.2-2.48-6.082c-2.443-4.089-7.44-6.248-9.543-10.522-1.178-2.394-1.29-5.153-1.38-7.819l-.23-6.8a4.964 4.964 0 0 1 .258-2.2c.8-1.809 3.233-1.978 5.2-2.207a17.789 17.789 0 0 0 6.373-2.011 6.648 6.648 0 0 0 2.846-2.527 8.144 8.144 0 0 0 .694-3.424l.681-12.318a7.713 7.713 0 0 0-.262-3.149c-.938-2.495-4.088-3.31-6.751-3.191-4.955.221-9.528 2.353-14.2 3.792a36.118 36.118 0 0 1-3.52.918 28.319 28.319 0 0 0-3.317.46c-1.778.6-1.733 4.488-1.985 6.1a51.369 51.369 0 0 0-.675 9.506z" class="cls-11" data-name="Tracé 34" transform="translate(-573.58 -359.947)"/>
        <path id="Tracé_35" d="M875.341 688.546a3.149 3.149 0 0 1 .693 1.7 57.916 57.916 0 0 1 .981 10.258 1.674 1.674 0 0 0 .185.93 1.166 1.166 0 0 0 .482.388c1.263.6 2.728-.237 3.781-1.159 1.95-1.709 3.6-4 3.712-6.593a15.314 15.314 0 0 1 .07-2 8.342 8.342 0 0 1 1.243-2.679 22.608 22.608 0 0 0 2.054-4.6c.192-.6.32-1.363-.153-1.785a1.721 1.721 0 0 0-.562-.292l-5.7-2.118c-.494-.184-1.724 2.976-1.92 3.321a2.61 2.61 0 0 1-1.91 1.519c-.978.2-2.142-.086-3.055.4-1.548.821-.775 1.829.099 2.71z" class="cls-12" data-name="Tracé 35" transform="translate(-629.267 -512.471)"/>
        <path id="Tracé_36" d="M835.247 710.027a1.752 1.752 0 0 0-.434-.55 1.964 1.964 0 0 0-.876-.3c-1.086-.184-2.373-.306-3.122.5-.7.757-.582 1.989-1.169 2.839-.186.269-.438.49-.6.775a2.923 2.923 0 0 0-.263 1.39c-.03 1.316-.061 2.635.03 3.949a5.525 5.525 0 0 0 .95 3.117c1.1 1.384 3.1 1.583 4.866 1.673l1.432.073a2.8 2.8 0 0 0 1.174-.108 1.932 1.932 0 0 0 1.013-1.114c.746-1.853-.435-3.85-1.162-5.711-.836-2.137-.686-4.512-1.839-6.533z" class="cls-12" data-name="Tracé 36" transform="translate(-597.974 -532.002)"/>
        <path id="Tracé_37" d="M800.9 255.222a1.185 1.185 0 0 1 .081-.552c.21-.371.758-.27 1.171-.166 1.662.419 3.413.04 5.125.138s3.639.953 3.983 2.633a12.5 12.5 0 0 0 3.159-3.246 3.9 3.9 0 0 0 .824-2.377c-.093-1.229-1.125-2.149-2.08-2.928l-2.847-2.324a4.29 4.29 0 0 0-1.275-.81 6.354 6.354 0 0 0-2.069-.117c-2.072 0-4.282-.942-6.125.006a6.614 6.614 0 0 0-1.908 1.735l-2.541 3.008a1.609 1.609 0 0 0-.406.689 3.055 3.055 0 0 0 .182 1.1c.12.672-.169 1.389.053 2.034.369 1.071 1.67 1.223 2.465 1.837.3.229.761 1 1.114 1 .632-.027 1.073-1.165 1.094-1.66z" class="cls-2" data-name="Tracé 37" transform="translate(-575.478 -213.603)"/>
        <circle id="Ellipse_38" cx="8.137" cy="8.137" r="8.137" class="cls-10" data-name="Ellipse 38" transform="translate(221.591 34.211)"/>
        <path id="Tracé_38" d="M788.662 317.324a3.941 3.941 0 0 0-3.837-2.641 1.171 1.171 0 0 1-.708-.09.977.977 0 0 1-.291-.364 14.219 14.219 0 0 1-1.186-2.8c-.13-.431-.307-.938-.743-1.05a1 1 0 0 0-.947.412 8.33 8.33 0 0 1-.677.851c-1.023.915-2.837.081-3.924.921-.177.137-.324.313-.51.438a2.383 2.383 0 0 1-.6.256 57.314 57.314 0 0 0-6.158 2.412 58.023 58.023 0 0 0 3.156 12.851c.806 1.938 1.719 3.836 2.365 5.834 1.43 4.425 1.493 9.16 1.51 13.811.011 3.183 0 6.434-1.035 9.446a8.926 8.926 0 0 0-.582 2.075 2.15 2.15 0 0 0 .728 1.934 2.49 2.49 0 0 0 1.124.395 14.559 14.559 0 0 0 5.34-.62c4.709-1.091 9.512-1.715 14.306-2.337l8.033-1.043a4.663 4.663 0 0 0 1.662-.429c1.47-.8 1.609-3.016.7-4.421a24.028 24.028 0 0 1-1.423-1.941 1.8 1.8 0 0 1 .234-2.208c1.288-1.006.9-2.874.965-4.507q.258-6.849-.07-13.7a27.29 27.29 0 0 1-.045-2.842 25.172 25.172 0 0 1 .886-4.743l2.441-9.61a5.007 5.007 0 0 0-3.015-1.937c-1.156-.29-2.361-.376-3.5-.729-2.333-.723-4.411-2.558-6.848-2.387a1.243 1.243 0 0 0-.531.13c-.55.311-.463 1.1-.5 1.734a4.789 4.789 0 0 1-2.237 3.379 39.815 39.815 0 0 0-3.469 2.346 1.548 1.548 0 0 0-.614 1.174z" class="cls-2" data-name="Tracé 38" transform="translate(-557.028 -257.169)"/>
        <path id="Tracé_39" d="M719.272 359a9.612 9.612 0 0 1-1.711.881 5.627 5.627 0 0 0-1.64.8 2.569 2.569 0 0 0-.57.7 3.133 3.133 0 0 0 2.889 4.667 6.284 6.284 0 0 0 2.136-.637l5.739-2.487a4.513 4.513 0 0 0 2.48-1.868.434.434 0 0 0 .056-.3.49.49 0 0 0-.236-.248 12.822 12.822 0 0 1-3.342-3.151c-.235-.32-.524-1.075-.856-1.266-1.217-.691-3.973 2.279-4.945 2.909z" class="cls-10" data-name="Tracé 39" transform="translate(-519.878 -289.73)"/>
        <path id="Tracé_40" d="M894.3 359.084l2.116 2.417c.454.519.909 1.038 1.323 1.59a18.555 18.555 0 0 1 2.423 4.565 7.97 7.97 0 0 1 .681 3.774 9.23 9.23 0 0 1-.529 1.919 23.872 23.872 0 0 1-1.438 3.463 19.733 19.733 0 0 1-1.618 2.425 56.651 56.651 0 0 1-5.364 6.135 6.991 6.991 0 0 0-1.342 2.842 11.869 11.869 0 0 1-3.3 4.494 9.164 9.164 0 0 1-1.417 1.219 4.614 4.614 0 0 1-2.578.734 2.831 2.831 0 0 1-1.161-.24 3 3 0 0 1-1.474-2.5 5.316 5.316 0 0 1 .445-2.674c1.214-2.69 4.332-3.855 6.536-5.818a21.217 21.217 0 0 0 3.255-4.026 13.916 13.916 0 0 0 1.646-2.886c.492-1.313.3-2.868.731-4.2.182-.564.5-1.074.7-1.633a1.906 1.906 0 0 0-.1-1.708 2.482 2.482 0 0 0-.958-.7c-1.408-.715-2.985-1.634-3.254-3.19a3.418 3.418 0 0 1 .63-2.436 10.145 10.145 0 0 1 1.776-1.861c.617-.548 1.653-1.161 2.271-1.705z" class="cls-10" data-name="Tracé 40" transform="translate(-633.552 -291.853)"/>
        <path id="Tracé_41" d="M703.06 371.653a3.931 3.931 0 0 0-1.595-1.9 2.938 2.938 0 0 0-2.318-.01 8.718 8.718 0 0 0-2.034 1.23l-1.824 1.344a4.491 4.491 0 0 0-1.083 1 4.22 4.22 0 0 0-.564 1.547 11.059 11.059 0 0 0-.287 3.827 10.878 10.878 0 0 0 2.894 5.418 4.816 4.816 0 0 0 3.2 2.007 1.469 1.469 0 0 0 1.415-.712 1.773 1.773 0 0 0 .126-.635 14.14 14.14 0 0 0-1.637-6.624 4.247 4.247 0 0 1-.528-1.78.489.489 0 0 1 .078-.3.5.5 0 0 1 .311-.152c1.31-.259 3.566.758 4.484-.7.602-.937-.215-2.705-.638-3.56z" class="cls-10" data-name="Tracé 41" transform="translate(-505.025 -299.008)"/>
        <path id="Tracé_42" d="M799.535 247.062a1.184 1.184 0 0 1 .081-.552c.21-.371.758-.27 1.171-.166 1.662.419 3.413.04 5.124.138s3.639.953 3.983 2.633a12.493 12.493 0 0 0 3.159-3.246 3.9 3.9 0 0 0 .824-2.377c-.093-1.229-1.125-2.149-2.08-2.928l-2.847-2.324a4.289 4.289 0 0 0-1.275-.81 6.353 6.353 0 0 0-2.069-.117c-2.072 0-4.282-.942-6.125.006a6.611 6.611 0 0 0-1.908 1.735l-2.541 3.008a1.606 1.606 0 0 0-.406.689 3.056 3.056 0 0 0 .182 1.1c.12.672-.169 1.389.053 2.034.369 1.071 1.67 1.223 2.465 1.837.3.229.761 1 1.114 1 .638-.022 1.079-1.165 1.095-1.66z" class="cls-2" data-name="Tracé 42" transform="translate(-574.545 -208.004)"/>
        <path id="Tracé_43" d="M745.714 334.447a3.31 3.31 0 0 0-.852.793c-.3.451-.359 1.021-.615 1.5-.548 1.019-1.831 1.382-2.631 2.218a.827.827 0 0 0-.253.434.966.966 0 0 0 .215.624l3.858 6.066c1.285.113 2.517-.692 3.8-.585a3.819 3.819 0 0 0 1.431.064 4.1 4.1 0 0 0 .918-.562c.767-.485 1.788-.541 2.431-1.181a3.329 3.329 0 0 0 .689-2.445 9.817 9.817 0 0 0-.229-2.249c-.568-2.328-2.349-4.115-3.465-6.178-.543-1-.839-1.592-1.99-.9s-2.221 1.605-3.307 2.401z" class="cls-2" data-name="Tracé 43" transform="translate(-538.006 -273.09)"/>
        <path id="Tracé_44" d="M890.072 326.111a9.026 9.026 0 0 1 1.941 1.7c.588.758.921 1.685 1.485 2.461a27.462 27.462 0 0 0 1.913 2.026 15.645 15.645 0 0 1 2.205 3.593 53.684 53.684 0 0 1-4.991 5.641 1.61 1.61 0 0 1-.758.5 1.223 1.223 0 0 1-1.072-.437c-.278-.292-.475-.651-.74-.954a3.817 3.817 0 0 0-2.355-1.141 16.2 16.2 0 0 0-2.673-.037 1.055 1.055 0 0 1-.571-.1.959.959 0 0 1-.312-.357c-1.045-1.778-.709-4.01-.34-6.038l.846-4.655a10.445 10.445 0 0 1 .7-2.587c.32-.685 1.036-1.845 1.917-1.641s2.058 1.488 2.805 2.026z" class="cls-2" data-name="Tracé 44" transform="translate(-635.504 -267.821)"/>
        <ellipse id="Ellipse_39" cx="12.865" cy="12.888" class="cls-13" data-name="Ellipse 39" rx="12.865" ry="12.888" transform="translate(86.903 63.079)"/>
        <path id="Tracé_45" d="M377.6 338.851a15.375 15.375 0 1 0 15.375 15.375 15.375 15.375 0 0 0-15.375-15.375zm-3.156 23.573l-7.88-7.88 2.21-2.21 5.677 5.677 11.982-11.982 2.21 2.21-14.2 14.185z" class="cls-14" data-name="Tracé 45" transform="translate(-277.837 -277.969)"/>
    </g>
</svg>
